<?xml version="1.0" encoding="UTF-8" standalone="no"?>
<!DOCTYPE svg PUBLIC "-//W3C//DTD SVG 1.1//EN" "http://www.w3.org/Graphics/SVG/1.1/DTD/svg11.dtd">
<svg width="100%" height="100%" viewBox="0 0 78 78" version="1.1" xmlns="http://www.w3.org/2000/svg" xmlns:xlink="http://www.w3.org/1999/xlink" xml:space="preserve" xmlns:serif="http://www.serif.com/" style="fill-rule:evenodd;clip-rule:evenodd;stroke-linejoin:round;stroke-miterlimit:2;">
    <g transform="matrix(1,0,0,1,-2024.16,-147.923)">
        <g transform="matrix(1.49646,0,0,0.907709,-868.264,11.1663)">
            <g transform="matrix(0.47252,0.779002,-0.396998,0.654495,1057.63,-1535.21)">
                <path d="M2112.67,185.621C2112.67,184.159 2112.18,182.757 2111.32,181.723C2110.45,180.689 2109.27,180.108 2108.04,180.108C2091.32,180.108 2034.17,180.108 2017.45,180.108C2016.22,180.108 2015.04,180.689 2014.17,181.723C2013.3,182.757 2012.82,184.159 2012.82,185.621C2012.82,185.623 2012.82,185.624 2012.82,185.626C2012.82,187.088 2013.3,188.49 2014.17,189.524C2015.04,190.558 2016.22,191.139 2017.45,191.139C2034.17,191.139 2091.32,191.139 2108.04,191.139C2109.27,191.139 2110.45,190.558 2111.32,189.524C2112.18,188.49 2112.67,187.088 2112.67,185.626C2112.67,185.624 2112.67,185.623 2112.67,185.621Z" style="fill:white;"/>
            </g>
            <g transform="matrix(-0.47252,0.779002,-0.396998,-0.654495,3007.01,-1292.23)">
                <path d="M2112.67,185.621C2112.67,184.159 2112.18,182.757 2111.32,181.723C2110.45,180.689 2109.27,180.108 2108.04,180.108C2091.32,180.108 2034.17,180.108 2017.45,180.108C2016.22,180.108 2015.04,180.689 2014.17,181.723C2013.3,182.757 2012.82,184.159 2012.82,185.621C2012.82,185.623 2012.82,185.624 2012.82,185.626C2012.82,187.088 2013.3,188.49 2014.17,189.524C2015.04,190.558 2016.22,191.139 2017.45,191.139C2034.17,191.139 2091.32,191.139 2108.04,191.139C2109.27,191.139 2110.45,190.558 2111.32,189.524C2112.18,188.49 2112.67,187.088 2112.67,185.626C2112.67,185.624 2112.67,185.623 2112.67,185.621Z" style="fill:white;"/>
            </g>
        </g>
    </g>
</svg>
