<?xml version="1.0" encoding="UTF-8" standalone="no"?>
<!DOCTYPE svg PUBLIC "-//W3C//DTD SVG 1.1//EN" "http://www.w3.org/Graphics/SVG/1.1/DTD/svg11.dtd">
<svg width="100%" height="100%" viewBox="0 0 60 60" version="1.1" xmlns="http://www.w3.org/2000/svg" xmlns:xlink="http://www.w3.org/1999/xlink" xml:space="preserve" xmlns:serif="http://www.serif.com/" style="fill-rule:evenodd;clip-rule:evenodd;stroke-linejoin:round;stroke-miterlimit:2;">
    <g transform="matrix(1,0,0,1,-1766.66,-355.966)">
        <g transform="matrix(1,0,0,1,0,-0.94426)">
            <g transform="matrix(1.15147,0,0,1.23228,-278.912,-91.7827)">
                <rect x="1776.48" y="364.117" width="52.107" height="48.69" style="fill:none;"/>
                <g transform="matrix(1,0,0,1,3.97904e-13,0.266189)">
                    <g transform="matrix(0.991717,0,0,1.26234,22.1372,-80.7607)">
                        <path d="M1812.21,371.496C1812.21,370.41 1811.01,369.529 1809.53,369.529C1803.19,369.529 1787.34,369.529 1781,369.529C1779.52,369.529 1778.32,370.41 1778.32,371.496C1778.32,371.497 1778.32,371.498 1778.32,371.498C1778.32,372.585 1779.52,373.465 1781,373.465C1787.34,373.465 1803.19,373.465 1809.53,373.465C1811.01,373.465 1812.21,372.585 1812.21,371.498C1812.21,371.498 1812.21,371.497 1812.21,371.496Z" style="fill:white;"/>
                    </g>
                    <g transform="matrix(0.991717,0,0,1.26234,22.1372,-90.6097)">
                        <path d="M1812.21,371.496C1812.21,370.41 1811.01,369.529 1809.53,369.529C1803.19,369.529 1787.34,369.529 1781,369.529C1779.52,369.529 1778.32,370.41 1778.32,371.496C1778.32,371.497 1778.32,371.498 1778.32,371.498C1778.32,372.585 1779.52,373.465 1781,373.465C1787.34,373.465 1803.19,373.465 1809.53,373.465C1811.01,373.465 1812.21,372.585 1812.21,371.498C1812.21,371.498 1812.21,371.497 1812.21,371.496Z" style="fill:white;"/>
                    </g>
                    <g transform="matrix(0.991717,0,0,1.26234,22.1372,-70.9117)">
                        <path d="M1812.21,371.496C1812.21,370.41 1811.01,369.529 1809.53,369.529C1803.19,369.529 1787.34,369.529 1781,369.529C1779.52,369.529 1778.32,370.41 1778.32,371.496C1778.32,371.497 1778.32,371.498 1778.32,371.498C1778.32,372.585 1779.52,373.465 1781,373.465C1787.34,373.465 1803.19,373.465 1809.53,373.465C1811.01,373.465 1812.21,372.585 1812.21,371.498C1812.21,371.498 1812.21,371.497 1812.21,371.496Z" style="fill:white;"/>
                    </g>
                </g>
            </g>
        </g>
    </g>
</svg>
