<?xml version="1.0" encoding="UTF-8" standalone="no"?>
<!DOCTYPE svg PUBLIC "-//W3C//DTD SVG 1.1//EN" "http://www.w3.org/Graphics/SVG/1.1/DTD/svg11.dtd">
<svg width="100%" height="100%" viewBox="0 0 1000 797" version="1.1" xmlns="http://www.w3.org/2000/svg" xmlns:xlink="http://www.w3.org/1999/xlink" xml:space="preserve" xmlns:serif="http://www.serif.com/" style="fill-rule:evenodd;clip-rule:evenodd;stroke-linejoin:round;stroke-miterlimit:2;">
    <g transform="matrix(1,0,0,1,-1.25056e-12,-101.65)">
        <g transform="matrix(0.980809,0,0,0.980809,2146.25,35.8578)">
            <g id="Jack-Russel-Terrier" serif:id="Jack Russel Terrier" transform="matrix(1.38196,0,0,1.38196,-2369.44,-217.758)">
                <g id="Foreground" transform="matrix(1,0,0,1,0,33.4529)">
                    <path d="M500,760.436C448.711,760.436 380.759,728.066 365.044,708.474C349.268,688.804 350.126,644.005 350.126,644.005C318.066,623.603 277.302,597.076 268.468,557.512C259.633,517.949 258.104,477.828 258.741,469.233C259.377,460.638 261.806,453.837 260.973,437.599C260.14,421.361 244.443,403.27 244.443,403.27C244.443,403.27 229.424,417.671 223.934,408.26C191.914,353.362 163.732,347.043 154.497,324.151C137.299,281.521 131.117,287.557 131.117,262.144C131.117,226.566 262.248,213.351 285.628,204.202C309.008,195.054 330.355,171.674 363.9,172.69C413.697,174.199 407.61,212.334 407.61,212.334C475.621,212.334 499.931,229.567 500,229.615C500.069,229.567 524.379,212.334 592.39,212.334C592.39,212.334 586.303,174.199 636.1,172.69C669.645,171.674 690.992,195.054 714.372,204.202C737.752,213.351 868.883,226.566 868.883,262.144C868.883,287.557 862.701,281.521 845.503,324.151C836.268,347.043 808.086,353.362 776.066,408.26C770.576,417.671 755.557,403.27 755.557,403.27C755.557,403.27 739.86,421.361 739.027,437.599C738.194,453.837 740.623,460.638 741.259,469.233C741.896,477.828 740.367,517.949 731.532,557.512C722.698,597.076 681.934,623.603 649.874,644.005C649.874,644.005 650.732,688.804 634.956,708.474C619.179,728.143 551.289,760.436 500,760.436Z" style="fill:rgb(170,109,57);"/>
                    <clipPath id="_clip1">
                        <path d="M500,760.436C448.711,760.436 380.759,728.066 365.044,708.474C349.268,688.804 350.126,644.005 350.126,644.005C318.066,623.603 277.302,597.076 268.468,557.512C259.633,517.949 258.104,477.828 258.741,469.233C259.377,460.638 261.806,453.837 260.973,437.599C260.14,421.361 244.443,403.27 244.443,403.27C244.443,403.27 229.424,417.671 223.934,408.26C191.914,353.362 163.732,347.043 154.497,324.151C137.299,281.521 131.117,287.557 131.117,262.144C131.117,226.566 262.248,213.351 285.628,204.202C309.008,195.054 330.355,171.674 363.9,172.69C413.697,174.199 407.61,212.334 407.61,212.334C475.621,212.334 499.931,229.567 500,229.615C500.069,229.567 524.379,212.334 592.39,212.334C592.39,212.334 586.303,174.199 636.1,172.69C669.645,171.674 690.992,195.054 714.372,204.202C737.752,213.351 868.883,226.566 868.883,262.144C868.883,287.557 862.701,281.521 845.503,324.151C836.268,347.043 808.086,353.362 776.066,408.26C770.576,417.671 755.557,403.27 755.557,403.27C755.557,403.27 739.86,421.361 739.027,437.599C738.194,453.837 740.623,460.638 741.259,469.233C741.896,477.828 740.367,517.949 731.532,557.512C722.698,597.076 681.934,623.603 649.874,644.005C649.874,644.005 650.732,688.804 634.956,708.474C619.179,728.143 551.289,760.436 500,760.436Z"/>
                    </clipPath>
                    <g clip-path="url(#_clip1)">
                        <g id="Shadows">
                            <g id="Shadow" transform="matrix(-1,0,0,1,1000,0)">
                                <path d="M684.442,224.734C671.888,208.912 629.012,181.518 625.963,193.716C622.913,205.914 653.42,189.969 690.075,279.663C709.535,327.282 716.439,385.867 736.425,407.934C756.41,430.002 758.076,407.934 758.076,407.934C758.076,407.934 742.254,387.116 738.507,373.376C734.759,359.636 736.425,333.821 728.098,308.007C719.77,282.192 696.995,240.555 684.442,224.734Z" style="fill:rgb(127,82,43);"/>
                            </g>
                            <g id="Light" transform="matrix(-1,0,0,1,1000,0)">
                                <path d="M625.752,173.626C625.752,173.626 666.044,173.033 691.914,205.814C717.784,238.594 716.727,250.226 739.461,260.272C762.196,270.317 770.656,265.03 796.563,267.674C822.47,270.317 829.872,275.605 840.975,280.363C852.078,285.122 868.883,304.209 868.883,304.209L903.364,224.848L620.5,154.528L625.752,173.626Z" style="fill:rgb(191,123,65);"/>
                            </g>
                            <g id="Light1" serif:id="Light" transform="matrix(-1,0,0,1,1000,0)">
                                <path d="M530.779,294.955C530.779,294.955 564.617,292.84 597.186,310.605C629.755,328.37 664.354,341.059 691.255,362.969C691.255,362.969 643.814,307.644 620.5,299.607C597.186,291.571 600.041,279.305 580.161,267.461C560.281,255.618 534.586,262.386 534.586,262.386L530.779,294.955Z" style="fill:rgb(191,123,65);"/>
                            </g>
                            <g id="Light2" serif:id="Light" transform="matrix(-1,0,0,1,1000,0)">
                                <path d="M539.536,237.181C615.248,246.487 668.583,319.661 668.583,319.661C668.583,319.661 648.049,284.131 646.029,269.75C644.01,255.369 624.276,233.822 619.218,229.993C596.51,212.805 545.259,206.812 545.259,206.812L539.536,237.181" style="fill:rgb(191,123,65);"/>
                            </g>
                        </g>
                        <g id="Shadows1" serif:id="Shadows">
                            <path id="Shadow1" serif:id="Shadow" d="M684.442,224.734C671.888,208.912 629.012,181.518 625.963,193.716C622.913,205.914 653.42,189.969 690.075,279.663C709.535,327.282 716.439,385.867 736.425,407.934C756.41,430.002 758.076,407.934 758.076,407.934C758.076,407.934 742.254,387.116 738.507,373.376C734.759,359.636 736.425,333.821 728.098,308.007C719.77,282.192 696.995,240.555 684.442,224.734Z" style="fill:rgb(127,82,43);"/>
                            <path id="Light3" serif:id="Light" d="M625.752,173.626C625.752,173.626 666.044,173.033 691.914,205.814C717.784,238.594 716.727,250.226 739.461,260.272C762.196,270.317 770.656,265.03 796.563,267.674C822.47,270.317 829.872,275.605 840.975,280.363C852.078,285.122 868.883,304.209 868.883,304.209L903.364,224.848L620.5,154.528L625.752,173.626Z" style="fill:rgb(191,123,65);"/>
                            <path id="Light4" serif:id="Light" d="M530.779,294.955C530.779,294.955 564.617,292.84 597.186,310.605C629.755,328.37 664.354,341.059 691.255,362.969C691.255,362.969 643.814,307.644 620.5,299.607C597.186,291.571 600.041,279.305 580.161,267.461C560.281,255.618 534.586,262.386 534.586,262.386L530.779,294.955Z" style="fill:rgb(191,123,65);"/>
                            <path id="Light5" serif:id="Light" d="M539.536,237.181C615.248,246.487 668.583,319.661 668.583,319.661C668.583,319.661 648.049,284.131 646.029,269.75C644.01,255.369 624.276,233.822 619.218,229.993C596.51,212.805 545.259,206.812 545.259,206.812L539.536,237.181" style="fill:rgb(191,123,65);"/>
                        </g>
                        <path id="Front" d="M507.728,196.035L557.344,213.247C557.344,213.247 544.641,256.809 538.5,304.209C532.359,351.608 528.437,387.745 543.307,417.742C558.178,447.74 570.094,476.92 625.752,511.824C656.947,531.387 644.966,602.759 644.966,602.759C644.966,602.759 650.826,615.123 650.098,643.935L668.583,721.62L508.256,777.762L508.261,783.545L500,780.653L491.739,783.545L491.744,777.762L331.417,721.62L349.902,643.935C349.174,615.123 355.034,602.759 355.034,602.759C355.034,602.759 343.053,531.387 374.248,511.824C429.906,476.92 441.822,447.74 456.693,417.742C471.563,387.745 467.641,351.608 461.5,304.209C455.359,256.809 442.656,213.247 442.656,213.247L492.272,196.035L492.277,190.675L500,193.354L507.723,190.675L507.728,196.035Z" style="fill:white;"/>
                        <clipPath id="_clip2">
                            <path id="Front1" serif:id="Front" d="M507.728,196.035L557.344,213.247C557.344,213.247 544.641,256.809 538.5,304.209C532.359,351.608 528.437,387.745 543.307,417.742C558.178,447.74 570.094,476.92 625.752,511.824C656.947,531.387 644.966,602.759 644.966,602.759C644.966,602.759 650.826,615.123 650.098,643.935L668.583,721.62L508.256,777.762L508.261,783.545L500,780.653L491.739,783.545L491.744,777.762L331.417,721.62L349.902,643.935C349.174,615.123 355.034,602.759 355.034,602.759C355.034,602.759 343.053,531.387 374.248,511.824C429.906,476.92 441.822,447.74 456.693,417.742C471.563,387.745 467.641,351.608 461.5,304.209C455.359,256.809 442.656,213.247 442.656,213.247L492.272,196.035L492.277,190.675L500,193.354L507.723,190.675L507.728,196.035Z"/>
                        </clipPath>
                        <g clip-path="url(#_clip2)">
                            <path id="Background" d="M644.966,602.759C644.966,602.759 582.692,511.044 580.161,475.724L705.13,526.487L644.966,602.759Z" style="fill:rgb(220,220,220);"/>
                            <g id="Background1" serif:id="Background" transform="matrix(-1,0,0,1,1000,0)">
                                <path d="M644.966,602.759C644.966,602.759 582.692,511.044 580.161,475.724L705.13,526.487L644.966,602.759Z" style="fill:rgb(220,220,220);"/>
                            </g>
                            <path id="Mouth" d="M499.795,718.828C464.829,718.778 443.334,705.937 436.511,701.139C436.194,700.885 436.075,700.457 436.216,700.076C436.358,699.696 436.727,699.448 437.132,699.463C469.922,700.668 483.277,699.348 500,699.348L500.391,699.348C516.933,699.369 530.334,700.659 562.868,699.463C563.273,699.448 563.642,699.696 563.784,700.076C563.925,700.457 563.806,700.885 563.489,701.139C556.652,705.947 535.087,718.828 500,718.828L499.795,718.828Z" style="fill:rgb(25,27,39);"/>
                            <g id="Dots">
                                <g transform="matrix(1,0,0,1,3.29926,-0.262825)">
                                    <circle cx="576.48" cy="664.212" r="3.849" style="fill:rgb(181,185,208);"/>
                                </g>
                                <g transform="matrix(1,0,0,1,-0.549896,-18.7263)">
                                    <circle cx="576.48" cy="664.212" r="3.849" style="fill:rgb(181,185,208);"/>
                                </g>
                                <g transform="matrix(1,0,0,1,-13.8915,-3.84916)">
                                    <circle cx="576.48" cy="664.212" r="3.849" style="fill:rgb(181,185,208);"/>
                                </g>
                                <g transform="matrix(1,0,0,1,-32.4663,-3.84916)">
                                    <circle cx="576.48" cy="664.212" r="3.849" style="fill:rgb(181,185,208);"/>
                                </g>
                                <g transform="matrix(1,0,0,1,-24.768,11.5918)">
                                    <circle cx="576.48" cy="664.212" r="3.849" style="fill:rgb(181,185,208);"/>
                                </g>
                                <g transform="matrix(1,0,0,1,-41.2159,17.2807)">
                                    <circle cx="576.48" cy="664.212" r="3.849" style="fill:rgb(181,185,208);"/>
                                </g>
                                <g transform="matrix(1,0,0,1,-45.065,1.57695)">
                                    <circle cx="576.48" cy="664.212" r="3.849" style="fill:rgb(181,185,208);"/>
                                </g>
                                <g transform="matrix(1,0,0,1,-62.9753,3.89349)">
                                    <circle cx="576.48" cy="664.212" r="3.849" style="fill:rgb(181,185,208);"/>
                                </g>
                                <g transform="matrix(1,0,0,1,-59.1262,19.2901)">
                                    <circle cx="576.48" cy="664.212" r="3.849" style="fill:rgb(181,185,208);"/>
                                </g>
                                <g transform="matrix(1,0,0,1,-28.6171,26.9884)">
                                    <circle cx="576.48" cy="664.212" r="3.849" style="fill:rgb(181,185,208);"/>
                                </g>
                                <g transform="matrix(1,0,0,1,-8.24821,26.9884)">
                                    <circle cx="576.48" cy="664.212" r="3.849" style="fill:rgb(181,185,208);"/>
                                </g>
                                <g transform="matrix(1,0,0,1,-20.9188,-17.0347)">
                                    <circle cx="576.48" cy="664.212" r="3.849" style="fill:rgb(181,185,208);"/>
                                </g>
                                <g transform="matrix(1,0,0,1,-8.24821,13.4316)">
                                    <circle cx="576.48" cy="664.212" r="3.849" style="fill:rgb(181,185,208);"/>
                                </g>
                            </g>
                            <g id="Dots1" serif:id="Dots" transform="matrix(-1,0,0,1,1000,0)">
                                <g transform="matrix(1,0,0,1,3.29926,-0.262825)">
                                    <circle cx="576.48" cy="664.212" r="3.849" style="fill:rgb(181,185,208);"/>
                                </g>
                                <g transform="matrix(1,0,0,1,-0.549896,-18.7263)">
                                    <circle cx="576.48" cy="664.212" r="3.849" style="fill:rgb(181,185,208);"/>
                                </g>
                                <g transform="matrix(1,0,0,1,-13.8915,-3.84916)">
                                    <circle cx="576.48" cy="664.212" r="3.849" style="fill:rgb(181,185,208);"/>
                                </g>
                                <g transform="matrix(1,0,0,1,-32.4663,-3.84916)">
                                    <circle cx="576.48" cy="664.212" r="3.849" style="fill:rgb(181,185,208);"/>
                                </g>
                                <g transform="matrix(1,0,0,1,-24.768,11.5918)">
                                    <circle cx="576.48" cy="664.212" r="3.849" style="fill:rgb(181,185,208);"/>
                                </g>
                                <g transform="matrix(1,0,0,1,-41.2159,17.2807)">
                                    <circle cx="576.48" cy="664.212" r="3.849" style="fill:rgb(181,185,208);"/>
                                </g>
                                <g transform="matrix(1,0,0,1,-45.065,1.57695)">
                                    <circle cx="576.48" cy="664.212" r="3.849" style="fill:rgb(181,185,208);"/>
                                </g>
                                <g transform="matrix(1,0,0,1,-62.9753,3.89349)">
                                    <circle cx="576.48" cy="664.212" r="3.849" style="fill:rgb(181,185,208);"/>
                                </g>
                                <g transform="matrix(1,0,0,1,-59.1262,19.2901)">
                                    <circle cx="576.48" cy="664.212" r="3.849" style="fill:rgb(181,185,208);"/>
                                </g>
                                <g transform="matrix(1,0,0,1,-28.6171,26.9884)">
                                    <circle cx="576.48" cy="664.212" r="3.849" style="fill:rgb(181,185,208);"/>
                                </g>
                                <g transform="matrix(1,0,0,1,-8.24821,26.9884)">
                                    <circle cx="576.48" cy="664.212" r="3.849" style="fill:rgb(181,185,208);"/>
                                </g>
                                <g transform="matrix(1,0,0,1,-20.9188,-17.0347)">
                                    <circle cx="576.48" cy="664.212" r="3.849" style="fill:rgb(181,185,208);"/>
                                </g>
                                <g transform="matrix(1,0,0,1,-8.24821,13.4316)">
                                    <circle cx="576.48" cy="664.212" r="3.849" style="fill:rgb(181,185,208);"/>
                                </g>
                            </g>
                            <path id="Nose" d="M499.699,656.817C448.539,656.534 417.075,584.129 419.839,573.562C422.609,562.974 436.801,523.512 500,523.512L500.738,523.514C563.31,523.82 577.402,563.016 580.161,573.562C582.93,584.149 551.338,656.818 500,656.818L499.699,656.817Z" style="fill:rgb(25,27,39);"/>
                            <clipPath id="_clip3">
                                <path id="Nose1" serif:id="Nose" d="M499.699,656.817C448.539,656.534 417.075,584.129 419.839,573.562C422.609,562.974 436.801,523.512 500,523.512L500.738,523.514C563.31,523.82 577.402,563.016 580.161,573.562C582.93,584.149 551.338,656.818 500,656.818L499.699,656.817Z"/>
                            </clipPath>
                            <g clip-path="url(#_clip3)">
                                <g id="Hole" transform="matrix(-1,0,0,1,1000,0)">
                                    <path d="M522.02,571.69C522.02,571.69 545.809,570.31 552.905,576.223C560.002,582.137 563.794,595.107 563.794,595.107L531.222,598.695L522.02,571.69Z" style="fill:rgb(18,19,28);"/>
                                </g>
                                <g id="Hole1" serif:id="Hole" transform="matrix(-1,0,0,1,1000,0)">
                                    <path d="M525.447,572.089C518.132,570.164 513.435,575.044 516.9,590.165C520.365,605.285 533.144,604.515 540.165,604.9C547.185,605.285 564.895,600.28 563.74,594.89C562.585,589.5 542.18,599.684 536.405,590.165C530.63,580.645 532.762,574.014 525.447,572.089Z" style="fill:rgb(9,10,14);"/>
                                </g>
                                <path id="Hole2" serif:id="Hole" d="M522.02,571.69C522.02,571.69 545.809,570.31 552.905,576.223C560.002,582.137 563.794,595.107 563.794,595.107L531.222,598.695L522.02,571.69Z" style="fill:rgb(18,19,28);"/>
                                <path id="Hole3" serif:id="Hole" d="M525.447,572.089C518.132,570.164 513.435,575.044 516.9,590.165C520.365,605.285 533.144,604.515 540.165,604.9C547.185,605.285 564.895,600.28 563.74,594.89C562.585,589.5 542.18,599.684 536.405,590.165C530.63,580.645 532.762,574.014 525.447,572.089Z" style="fill:rgb(9,10,14);"/>
                            </g>
                        </g>
                        <g id="Eye">
                            <path id="Eyehole" d="M589.076,424.481C589.093,429.012 592.251,432.924 596.676,433.896C608.266,436.428 630.942,440.616 645.676,438.49C666.177,435.534 686.874,411.021 686.283,393.019C685.691,375.018 656.715,352.152 638.777,352.152C621.587,352.152 588.831,367.357 589.076,424.481Z" style="fill:rgb(125,80,42);"/>
                            <path id="Above-line" serif:id="Above line" d="M637.694,353.152C657.133,355.069 671.149,367.608 678.049,375.315C678.35,375.675 678.874,375.747 679.261,375.483C679.649,375.219 679.772,374.704 679.547,374.293C674.067,364.359 661.27,347.538 637.694,347.538C627.989,347.538 618.275,354.867 612.309,360.418C611.964,360.723 611.903,361.239 612.168,361.616C612.434,361.993 612.941,362.109 613.344,361.886C620.083,357.75 630.348,352.428 637.694,353.152Z" style="fill:rgb(207,156,113);"/>
                            <g id="Eyeball" transform="matrix(0.945222,-0.326429,0.300021,0.868753,-85.7061,262.085)">
                                <path d="M643.071,352.144C663.976,352.144 681.451,376.81 679.8,402.936C679.699,404.445 679.24,405.9 678.468,407.158C670.708,419.76 660.65,429.927 643.071,430.168C622.78,430.447 611.734,422.733 602.873,407.589C601.804,405.758 601.399,403.56 601.735,401.422C605.428,380.391 622.634,352.144 643.071,352.144Z"/>
                                <clipPath id="_clip4">
                                    <path d="M643.071,352.144C663.976,352.144 681.451,376.81 679.8,402.936C679.699,404.445 679.24,405.9 678.468,407.158C670.708,419.76 660.65,429.927 643.071,430.168C622.78,430.447 611.734,422.733 602.873,407.589C601.804,405.758 601.399,403.56 601.735,401.422C605.428,380.391 622.634,352.144 643.071,352.144Z"/>
                                </clipPath>
                                <g clip-path="url(#_clip4)">
                                    <g id="Reflect" transform="matrix(0.945222,0.355162,-0.326429,1.02842,166.563,-239.094)">
                                        <path d="M659.786,413.164C660.514,412.549 660.879,411.606 660.756,410.661C660.633,409.716 660.038,408.899 659.176,408.491C653.719,405.888 643.804,401.197 639.21,399.024C637.837,398.374 636.198,398.927 635.499,400.275C633.259,404.593 628.558,413.657 625.959,418.667C625.528,419.498 625.537,420.49 625.984,421.313C626.431,422.136 627.258,422.684 628.19,422.775C633.097,423.282 641.357,423.732 646.743,421.578C651.685,419.601 656.666,415.808 659.786,413.164Z" style="fill:rgb(55,55,55);"/>
                                    </g>
                                    <g id="Reflect1" serif:id="Reflect" transform="matrix(0.945222,0.355162,-0.326429,1.02842,166.563,-239.094)">
                                        <path d="M632.115,381.529C633.466,381.349 634.435,380.138 634.314,378.78C634.088,376.24 633.729,372.215 633.463,369.235C633.387,368.38 632.885,367.621 632.127,367.217C631.37,366.812 630.46,366.817 629.707,367.229C625.863,369.333 619.668,372.723 615.95,374.758C615.23,375.152 614.744,375.869 614.645,376.684C614.546,377.499 614.847,378.311 615.452,378.866C616.774,380.078 618.291,381.469 619.222,382.322C619.777,382.831 620.53,383.068 621.277,382.969C623.636,382.655 628.981,381.945 632.115,381.529Z" style="fill:rgb(101,101,101);"/>
                                    </g>
                                </g>
                            </g>
                        </g>
                        <g id="Eye1" serif:id="Eye" transform="matrix(-1,0,0,1,1000,0)">
                            <path id="Eyehole1" serif:id="Eyehole" d="M589.076,424.481C589.093,429.012 592.251,432.924 596.676,433.896C608.266,436.428 630.942,440.616 645.676,438.49C666.177,435.534 686.874,411.021 686.283,393.019C685.691,375.018 656.715,352.152 638.777,352.152C621.587,352.152 588.831,367.357 589.076,424.481Z" style="fill:rgb(125,80,42);"/>
                            <path id="Above-line1" serif:id="Above line" d="M637.694,353.152C657.133,355.069 671.149,367.608 678.049,375.315C678.35,375.675 678.874,375.747 679.261,375.483C679.649,375.219 679.772,374.704 679.547,374.293C674.067,364.359 661.27,347.538 637.694,347.538C627.989,347.538 618.275,354.867 612.309,360.418C611.964,360.723 611.903,361.239 612.168,361.616C612.434,361.993 612.941,362.109 613.344,361.886C620.083,357.75 630.348,352.428 637.694,353.152Z" style="fill:rgb(207,156,113);"/>
                            <g id="Eyeball1" serif:id="Eyeball" transform="matrix(0.945222,-0.326429,0.300021,0.868753,-85.7061,262.085)">
                                <path d="M643.071,352.144C663.976,352.144 681.451,376.81 679.8,402.936C679.699,404.445 679.24,405.9 678.468,407.158C670.708,419.76 660.65,429.927 643.071,430.168C622.78,430.447 611.734,422.733 602.873,407.589C601.804,405.758 601.399,403.56 601.735,401.422C605.428,380.391 622.634,352.144 643.071,352.144Z"/>
                                <clipPath id="_clip5">
                                    <path d="M643.071,352.144C663.976,352.144 681.451,376.81 679.8,402.936C679.699,404.445 679.24,405.9 678.468,407.158C670.708,419.76 660.65,429.927 643.071,430.168C622.78,430.447 611.734,422.733 602.873,407.589C601.804,405.758 601.399,403.56 601.735,401.422C605.428,380.391 622.634,352.144 643.071,352.144Z"/>
                                </clipPath>
                                <g clip-path="url(#_clip5)">
                                    <g id="Reflect2" serif:id="Reflect" transform="matrix(-0.945222,-0.355162,-0.326429,1.02842,1372.5,214.03)">
                                        <path d="M659.786,413.164C660.514,412.549 660.879,411.606 660.756,410.661C660.633,409.716 660.038,408.899 659.176,408.491C653.719,405.888 643.804,401.197 639.21,399.024C637.837,398.374 636.198,398.927 635.499,400.275C633.259,404.593 628.558,413.657 625.959,418.667C625.528,419.498 625.537,420.49 625.984,421.313C626.431,422.136 627.258,422.684 628.19,422.775C633.097,423.282 641.357,423.732 646.743,421.578C651.685,419.601 656.666,415.808 659.786,413.164Z" style="fill:rgb(55,55,55);"/>
                                    </g>
                                    <g id="Reflect3" serif:id="Reflect" transform="matrix(-0.945222,-0.355162,-0.326429,1.02842,1372.5,214.03)">
                                        <path d="M632.115,381.529C633.466,381.349 634.435,380.138 634.314,378.78C634.088,376.24 633.729,372.215 633.463,369.235C633.387,368.38 632.885,367.621 632.127,367.217C631.37,366.812 630.46,366.817 629.707,367.229C625.863,369.333 619.668,372.723 615.95,374.758C615.23,375.152 614.744,375.869 614.645,376.684C614.546,377.499 614.847,378.311 615.452,378.866C616.774,380.078 618.291,381.469 619.222,382.322C619.777,382.831 620.53,383.068 621.277,382.969C623.636,382.655 628.981,381.945 632.115,381.529Z" style="fill:rgb(101,101,101);"/>
                                    </g>
                                </g>
                            </g>
                        </g>
                    </g>
                </g>
                <g id="Mustaches">
                    <g id="Mustache" transform="matrix(0.964674,0.263446,-0.188645,0.690771,101.76,76.3362)">
                        <path d="M655.39,595.096C654.921,590.567 693.529,580.799 732.467,632.116C684.27,582.735 655.859,599.624 655.39,595.096Z" style="fill:white;"/>
                    </g>
                    <g id="Mustache1" serif:id="Mustache" transform="matrix(0.998998,0.0447619,-0.0320525,0.715349,-1.87166,193.307)">
                        <path d="M655.39,595.096C656.079,589.577 697.924,574.74 732.467,632.116C684.27,582.735 654.701,600.614 655.39,595.096Z" style="fill:white;"/>
                    </g>
                    <g id="Mustache2" serif:id="Mustache" transform="matrix(0.998998,0.0447619,-0.0320525,0.715349,8.55723,179.518)">
                        <path d="M639.362,599.348C634.585,591.387 692.853,574.116 730.531,624.242C678.025,577.012 644.14,607.309 639.362,599.348Z" style="fill:white;"/>
                    </g>
                    <g id="Mustache3" serif:id="Mustache" transform="matrix(0.997227,0.0744202,-0.0532898,0.714081,33.7767,139.354)">
                        <path d="M630.992,613.278C630.656,608.231 692.853,574.116 730.531,624.242C678.025,577.012 631.329,618.324 630.992,613.278Z" style="fill:white;"/>
                    </g>
                    <path id="Mustache4" serif:id="Mustache" d="M621.689,608.437C621.353,603.391 692.853,574.116 730.531,624.242C678.05,577.481 622.025,613.483 621.689,608.437Z" style="fill:white;"/>
                </g>
                <g id="Mustaches1" serif:id="Mustaches" transform="matrix(-1,0,0,1,1007.55,0)">
                    <g id="Mustache5" serif:id="Mustache" transform="matrix(0.964674,0.263446,-0.188645,0.690771,101.76,76.3362)">
                        <path d="M655.39,595.096C654.921,590.567 693.529,580.799 732.467,632.116C684.27,582.735 655.859,599.624 655.39,595.096Z" style="fill:white;"/>
                    </g>
                    <g id="Mustache6" serif:id="Mustache" transform="matrix(0.998998,0.0447619,-0.0320525,0.715349,-1.87166,193.307)">
                        <path d="M655.39,595.096C656.079,589.577 697.924,574.74 732.467,632.116C684.27,582.735 654.701,600.614 655.39,595.096Z" style="fill:white;"/>
                    </g>
                    <g id="Mustache7" serif:id="Mustache" transform="matrix(0.998998,0.0447619,-0.0320525,0.715349,8.55723,179.518)">
                        <path d="M639.362,599.348C634.585,591.387 692.853,574.116 730.531,624.242C678.025,577.012 644.14,607.309 639.362,599.348Z" style="fill:white;"/>
                    </g>
                    <g id="Mustache8" serif:id="Mustache" transform="matrix(0.997227,0.0744202,-0.0532898,0.714081,33.7767,139.354)">
                        <path d="M634.91,601.302C634.573,596.256 692.853,574.116 730.531,624.242C678.025,577.012 635.246,606.349 634.91,601.302Z" style="fill:white;"/>
                    </g>
                    <path id="Mustache9" serif:id="Mustache" d="M625.224,604.397C624.887,599.351 692.853,574.116 730.531,624.242C678.05,577.481 625.56,609.443 625.224,604.397Z" style="fill:white;"/>
                </g>
            </g>
        </g>
    </g>
</svg>
