<?xml version="1.0" encoding="UTF-8" standalone="no"?>
<!DOCTYPE svg PUBLIC "-//W3C//DTD SVG 1.1//EN" "http://www.w3.org/Graphics/SVG/1.1/DTD/svg11.dtd">
<svg width="100%" height="100%" viewBox="0 0 240 54" version="1.1" xmlns="http://www.w3.org/2000/svg" xmlns:xlink="http://www.w3.org/1999/xlink" xml:space="preserve" xmlns:serif="http://www.serif.com/" style="fill-rule:evenodd;clip-rule:evenodd;stroke-linecap:round;stroke-linejoin:round;stroke-miterlimit:1.41421;">
    <g transform="matrix(1,0,0,1,-975.656,-201.602)">
        <g transform="matrix(0.707099,0,0,0.707099,529.765,106.662)">
            <g transform="matrix(0.411995,0,0,0.411995,374.539,54.7813)">
                <path d="M681.76,336.258C686.059,336.258 689.61,335.9 692.411,335.183C695.213,334.466 697.46,333.489 699.154,332.251C700.848,331.013 702.021,329.548 702.672,327.854C703.324,326.16 703.65,324.27 703.65,322.186C703.65,317.756 701.565,314.075 697.395,311.143C693.226,308.211 686.059,305.052 675.896,301.664C671.466,300.1 667.036,298.309 662.606,296.289C658.176,294.269 654.202,291.729 650.684,288.667C647.166,285.605 644.299,281.891 642.084,277.526C639.869,273.161 638.761,267.852 638.761,261.597C638.761,255.343 639.934,249.708 642.279,244.691C644.625,239.675 647.947,235.407 652.247,231.889C656.547,228.371 661.759,225.668 667.883,223.778C674.007,221.889 680.913,220.944 688.6,220.944C697.721,220.944 705.604,221.922 712.249,223.876C718.894,225.831 724.367,227.98 728.667,230.326L719.872,254.366C716.093,252.411 711.891,250.685 707.265,249.186C702.64,247.688 697.07,246.939 690.555,246.939C683.258,246.939 678.013,247.949 674.821,249.968C671.629,251.988 670.033,255.082 670.033,259.252C670.033,261.728 670.619,263.812 671.792,265.506C672.964,267.2 674.626,268.731 676.776,270.099C678.926,271.467 681.401,272.705 684.203,273.813C687.004,274.92 690.099,276.06 693.486,277.233C700.522,279.839 706.646,282.412 711.858,284.953C717.07,287.494 721.403,290.458 724.856,293.846C728.308,297.234 730.882,301.208 732.576,305.768C734.27,310.329 735.116,315.866 735.116,322.381C735.116,335.02 730.686,344.825 721.826,351.796C712.966,358.767 699.61,362.252 681.76,362.252C675.766,362.252 670.359,361.894 665.537,361.177C660.716,360.461 656.449,359.581 652.736,358.539C649.022,357.496 645.83,356.389 643.159,355.216C640.488,354.043 638.24,352.936 636.416,351.894L645.016,327.658C649.055,329.873 654.039,331.86 659.967,333.619C665.896,335.378 673.16,336.258 681.76,336.258Z" style="fill:none;fill-rule:nonzero;stroke:black;stroke-width:29.84px;"/>
                <path d="M681.76,336.258C686.059,336.258 689.61,335.9 692.411,335.183C695.213,334.466 697.46,333.489 699.154,332.251C700.848,331.013 702.021,329.548 702.672,327.854C703.324,326.16 703.65,324.27 703.65,322.186C703.65,317.756 701.565,314.075 697.395,311.143C693.226,308.211 686.059,305.052 675.896,301.664C671.466,300.1 667.036,298.309 662.606,296.289C658.176,294.269 654.202,291.729 650.684,288.667C647.166,285.605 644.299,281.891 642.084,277.526C639.869,273.161 638.761,267.852 638.761,261.597C638.761,255.343 639.934,249.708 642.279,244.691C644.625,239.675 647.947,235.407 652.247,231.889C656.547,228.371 661.759,225.668 667.883,223.778C674.007,221.889 680.913,220.944 688.6,220.944C697.721,220.944 705.604,221.922 712.249,223.876C718.894,225.831 724.367,227.98 728.667,230.326L719.872,254.366C716.093,252.411 711.891,250.685 707.265,249.186C702.64,247.688 697.07,246.939 690.555,246.939C683.258,246.939 678.013,247.949 674.821,249.968C671.629,251.988 670.033,255.082 670.033,259.252C670.033,261.728 670.619,263.812 671.792,265.506C672.964,267.2 674.626,268.731 676.776,270.099C678.926,271.467 681.401,272.705 684.203,273.813C687.004,274.92 690.099,276.06 693.486,277.233C700.522,279.839 706.646,282.412 711.858,284.953C717.07,287.494 721.403,290.458 724.856,293.846C728.308,297.234 730.882,301.208 732.576,305.768C734.27,310.329 735.116,315.866 735.116,322.381C735.116,335.02 730.686,344.825 721.826,351.796C712.966,358.767 699.61,362.252 681.76,362.252C675.766,362.252 670.359,361.894 665.537,361.177C660.716,360.461 656.449,359.581 652.736,358.539C649.022,357.496 645.83,356.389 643.159,355.216C640.488,354.043 638.24,352.936 636.416,351.894L645.016,327.658C649.055,329.873 654.039,331.86 659.967,333.619C665.896,335.378 673.16,336.258 681.76,336.258Z" style="fill:white;fill-rule:nonzero;"/>
                <path d="M797.659,361.47C789.19,361.34 782.317,360.428 777.04,358.734C771.763,357.04 767.593,354.662 764.531,351.6C761.469,348.538 759.384,344.825 758.277,340.46C757.169,336.095 756.616,331.176 756.616,325.704L756.616,212.54L785.737,207.849L785.737,319.84C785.737,322.446 785.933,324.792 786.323,326.876C786.714,328.961 787.464,330.72 788.571,332.153C789.679,333.587 791.275,334.759 793.359,335.671C795.444,336.584 798.246,337.17 801.764,337.431L797.659,361.47Z" style="fill:none;fill-rule:nonzero;stroke:black;stroke-width:29.84px;"/>
                <path d="M797.659,361.47C789.19,361.34 782.317,360.428 777.04,358.734C771.763,357.04 767.593,354.662 764.531,351.6C761.469,348.538 759.384,344.825 758.277,340.46C757.169,336.095 756.616,331.176 756.616,325.704L756.616,212.54L785.737,207.849L785.737,319.84C785.737,322.446 785.933,324.792 786.323,326.876C786.714,328.961 787.464,330.72 788.571,332.153C789.679,333.587 791.275,334.759 793.359,335.671C795.444,336.584 798.246,337.17 801.764,337.431L797.659,361.47Z" style="fill:white;fill-rule:nonzero;"/>
                <path d="M847.498,359.516L818.377,359.516L818.377,256.711L847.498,256.711L847.498,359.516ZM850.234,227.003C850.234,232.345 848.508,236.548 845.055,239.61C841.602,242.672 837.53,244.203 832.84,244.203C828.149,244.203 824.077,242.672 820.624,239.61C817.171,236.548 815.445,232.345 815.445,227.003C815.445,221.661 817.171,217.459 820.624,214.397C824.077,211.335 828.149,209.804 832.84,209.804C837.53,209.804 841.602,211.335 845.055,214.397C848.508,217.459 850.234,221.661 850.234,227.003Z" style="fill:none;fill-rule:nonzero;stroke:black;stroke-width:29.84px;"/>
                <path d="M847.498,359.516L818.377,359.516L818.377,256.711L847.498,256.711L847.498,359.516ZM850.234,227.003C850.234,232.345 848.508,236.548 845.055,239.61C841.602,242.672 837.53,244.203 832.84,244.203C828.149,244.203 824.077,242.672 820.624,239.61C817.171,236.548 815.445,232.345 815.445,227.003C815.445,221.661 817.171,217.459 820.624,214.397C824.077,211.335 828.149,209.804 832.84,209.804C837.53,209.804 841.602,211.335 845.055,214.397C848.508,217.459 850.234,221.661 850.234,227.003Z" style="fill:white;fill-rule:nonzero;"/>
                <path d="M931.345,304.986C931.345,295.605 930.139,288.96 927.729,285.051C925.318,281.142 921.182,279.187 915.318,279.187C913.494,279.187 911.605,279.285 909.65,279.481C907.696,279.676 905.806,279.904 903.982,280.165L903.982,359.516L874.861,359.516L874.861,260.229C877.336,259.578 880.235,258.894 883.558,258.177C886.881,257.46 890.399,256.809 894.112,256.222C897.826,255.636 901.637,255.18 905.546,254.854C909.455,254.529 913.298,254.366 917.077,254.366C924.504,254.366 930.53,255.31 935.156,257.2C939.781,259.089 943.593,261.337 946.59,263.943C950.759,260.946 955.548,258.6 960.955,256.907C966.362,255.213 971.346,254.366 975.907,254.366C984.115,254.366 990.858,255.506 996.135,257.786C1001.41,260.066 1005.61,263.291 1008.74,267.461C1011.87,271.63 1014.02,276.582 1015.19,282.315C1016.36,288.048 1016.95,294.432 1016.95,301.468L1016.95,359.516L987.829,359.516L987.829,304.986C987.829,295.605 986.624,288.96 984.213,285.051C981.802,281.142 977.666,279.187 971.802,279.187C970.239,279.187 968.056,279.578 965.255,280.36C962.453,281.142 960.141,282.119 958.316,283.292C959.228,286.289 959.815,289.448 960.075,292.771C960.336,296.094 960.466,299.644 960.466,303.423L960.466,359.516L931.345,359.516L931.345,304.986Z" style="fill:none;fill-rule:nonzero;stroke:black;stroke-width:29.84px;"/>
                <path d="M931.345,304.986C931.345,295.605 930.139,288.96 927.729,285.051C925.318,281.142 921.182,279.187 915.318,279.187C913.494,279.187 911.605,279.285 909.65,279.481C907.696,279.676 905.806,279.904 903.982,280.165L903.982,359.516L874.861,359.516L874.861,260.229C877.336,259.578 880.235,258.894 883.558,258.177C886.881,257.46 890.399,256.809 894.112,256.222C897.826,255.636 901.637,255.18 905.546,254.854C909.455,254.529 913.298,254.366 917.077,254.366C924.504,254.366 930.53,255.31 935.156,257.2C939.781,259.089 943.593,261.337 946.59,263.943C950.759,260.946 955.548,258.6 960.955,256.907C966.362,255.213 971.346,254.366 975.907,254.366C984.115,254.366 990.858,255.506 996.135,257.786C1001.41,260.066 1005.61,263.291 1008.74,267.461C1011.87,271.63 1014.02,276.582 1015.19,282.315C1016.36,288.048 1016.95,294.432 1016.95,301.468L1016.95,359.516L987.829,359.516L987.829,304.986C987.829,295.605 986.624,288.96 984.213,285.051C981.802,281.142 977.666,279.187 971.802,279.187C970.239,279.187 968.056,279.578 965.255,280.36C962.453,281.142 960.141,282.119 958.316,283.292C959.228,286.289 959.815,289.448 960.075,292.771C960.336,296.094 960.466,299.644 960.466,303.423L960.466,359.516L931.345,359.516L931.345,304.986Z" style="fill:white;fill-rule:nonzero;"/>
                <path d="M1038.45,308.895C1038.45,299.774 1039.85,291.794 1042.65,284.953C1045.45,278.113 1049.13,272.412 1053.69,267.852C1058.26,263.291 1063.5,259.838 1069.43,257.493C1075.36,255.148 1081.45,253.975 1087.7,253.975C1102.3,253.975 1113.83,258.438 1122.3,267.363C1130.77,276.288 1135,289.416 1135,306.745C1135,308.439 1134.93,310.296 1134.81,312.316C1134.67,314.335 1134.54,316.127 1134.41,317.69L1068.35,317.69C1069,323.684 1071.81,328.44 1076.76,331.958C1081.71,335.476 1088.35,337.235 1096.69,337.235C1102.04,337.235 1107.28,336.746 1112.43,335.769C1117.57,334.792 1121.78,333.587 1125.03,332.153L1128.94,355.802C1127.38,356.584 1125.29,357.366 1122.69,358.148C1120.08,358.93 1117.18,359.614 1113.99,360.2C1110.8,360.786 1107.38,361.275 1103.73,361.666C1100.08,362.057 1096.43,362.252 1092.78,362.252C1083.53,362.252 1075.49,360.884 1068.65,358.148C1061.81,355.412 1056.14,351.666 1051.64,346.91C1047.15,342.154 1043.82,336.518 1041.67,330.004C1039.52,323.489 1038.45,316.453 1038.45,308.895ZM1106.86,297.755C1106.73,295.279 1106.3,292.869 1105.59,290.523C1104.87,288.178 1103.76,286.093 1102.26,284.269C1100.76,282.445 1098.88,280.946 1096.6,279.774C1094.32,278.601 1091.48,278.015 1088.09,278.015C1084.84,278.015 1082.03,278.569 1079.69,279.676C1077.34,280.784 1075.39,282.249 1073.83,284.074C1072.26,285.898 1071.06,288.015 1070.21,290.426C1069.36,292.836 1068.74,295.279 1068.35,297.755L1106.86,297.755Z" style="fill:none;fill-rule:nonzero;stroke:black;stroke-width:29.84px;"/>
                <path d="M1038.45,308.895C1038.45,299.774 1039.85,291.794 1042.65,284.953C1045.45,278.113 1049.13,272.412 1053.69,267.852C1058.26,263.291 1063.5,259.838 1069.43,257.493C1075.36,255.148 1081.45,253.975 1087.7,253.975C1102.3,253.975 1113.83,258.438 1122.3,267.363C1130.77,276.288 1135,289.416 1135,306.745C1135,308.439 1134.93,310.296 1134.81,312.316C1134.67,314.335 1134.54,316.127 1134.41,317.69L1068.35,317.69C1069,323.684 1071.81,328.44 1076.76,331.958C1081.71,335.476 1088.35,337.235 1096.69,337.235C1102.04,337.235 1107.28,336.746 1112.43,335.769C1117.57,334.792 1121.78,333.587 1125.03,332.153L1128.94,355.802C1127.38,356.584 1125.29,357.366 1122.69,358.148C1120.08,358.93 1117.18,359.614 1113.99,360.2C1110.8,360.786 1107.38,361.275 1103.73,361.666C1100.08,362.057 1096.43,362.252 1092.78,362.252C1083.53,362.252 1075.49,360.884 1068.65,358.148C1061.81,355.412 1056.14,351.666 1051.64,346.91C1047.15,342.154 1043.82,336.518 1041.67,330.004C1039.52,323.489 1038.45,316.453 1038.45,308.895ZM1106.86,297.755C1106.73,295.279 1106.3,292.869 1105.59,290.523C1104.87,288.178 1103.76,286.093 1102.26,284.269C1100.76,282.445 1098.88,280.946 1096.6,279.774C1094.32,278.601 1091.48,278.015 1088.09,278.015C1084.84,278.015 1082.03,278.569 1079.69,279.676C1077.34,280.784 1075.39,282.249 1073.83,284.074C1072.26,285.898 1071.06,288.015 1070.21,290.426C1069.36,292.836 1068.74,295.279 1068.35,297.755L1106.86,297.755Z" style="fill:white;fill-rule:nonzero;"/>
                <path d="M1219.43,282.51C1216.83,281.859 1213.77,281.174 1210.25,280.458C1206.73,279.741 1202.95,279.383 1198.91,279.383C1197.09,279.383 1194.9,279.546 1192.36,279.872C1189.82,280.197 1187.9,280.556 1186.6,280.946L1186.6,359.516L1157.48,359.516L1157.48,262.184C1162.69,260.359 1168.85,258.633 1175.95,257.004C1183.05,255.376 1190.96,254.561 1199.69,254.561C1201.26,254.561 1203.15,254.659 1205.36,254.854C1207.58,255.05 1209.79,255.31 1212.01,255.636C1214.22,255.962 1216.44,256.353 1218.65,256.809C1220.87,257.265 1222.76,257.819 1224.32,258.47L1219.43,282.51Z" style="fill:none;fill-rule:nonzero;stroke:black;stroke-width:29.84px;"/>
                <path d="M1219.43,282.51C1216.83,281.859 1213.77,281.174 1210.25,280.458C1206.73,279.741 1202.95,279.383 1198.91,279.383C1197.09,279.383 1194.9,279.546 1192.36,279.872C1189.82,280.197 1187.9,280.556 1186.6,280.946L1186.6,359.516L1157.48,359.516L1157.48,262.184C1162.69,260.359 1168.85,258.633 1175.95,257.004C1183.05,255.376 1190.96,254.561 1199.69,254.561C1201.26,254.561 1203.15,254.659 1205.36,254.854C1207.58,255.05 1209.79,255.31 1212.01,255.636C1214.22,255.962 1216.44,256.353 1218.65,256.809C1220.87,257.265 1222.76,257.819 1224.32,258.47L1219.43,282.51Z" style="fill:white;fill-rule:nonzero;"/>
                <path d="M1256.76,344.076C1256.76,349.939 1254.91,354.402 1251.19,357.464C1247.48,360.526 1243.28,362.057 1238.59,362.057C1233.9,362.057 1229.69,360.526 1225.98,357.464C1222.27,354.402 1220.41,349.939 1220.41,344.076C1220.41,338.212 1222.27,333.75 1225.98,330.688C1229.69,327.626 1233.9,326.095 1238.59,326.095C1243.28,326.095 1247.48,327.626 1251.19,330.688C1254.91,333.75 1256.76,338.212 1256.76,344.076Z" style="fill:none;fill-rule:nonzero;stroke:black;stroke-width:29.84px;"/>
                <path d="M1256.76,344.076C1256.76,349.939 1254.91,354.402 1251.19,357.464C1247.48,360.526 1243.28,362.057 1238.59,362.057C1233.9,362.057 1229.69,360.526 1225.98,357.464C1222.27,354.402 1220.41,349.939 1220.41,344.076C1220.41,338.212 1222.27,333.75 1225.98,330.688C1229.69,327.626 1233.9,326.095 1238.59,326.095C1243.28,326.095 1247.48,327.626 1251.19,330.688C1254.91,333.75 1256.76,338.212 1256.76,344.076Z" style="fill:white;fill-rule:nonzero;"/>
                <path d="M1305.43,359.516L1276.31,359.516L1276.31,256.711L1305.43,256.711L1305.43,359.516ZM1308.17,227.003C1308.17,232.345 1306.44,236.548 1302.99,239.61C1299.53,242.672 1295.46,244.203 1290.77,244.203C1286.08,244.203 1282.01,242.672 1278.56,239.61C1275.1,236.548 1273.38,232.345 1273.38,227.003C1273.38,221.661 1275.1,217.459 1278.56,214.397C1282.01,211.335 1286.08,209.804 1290.77,209.804C1295.46,209.804 1299.53,211.335 1302.99,214.397C1306.44,217.459 1308.17,221.661 1308.17,227.003Z" style="fill:none;fill-rule:nonzero;stroke:black;stroke-width:29.84px;"/>
                <path d="M1305.43,359.516L1276.31,359.516L1276.31,256.711L1305.43,256.711L1305.43,359.516ZM1308.17,227.003C1308.17,232.345 1306.44,236.548 1302.99,239.61C1299.53,242.672 1295.46,244.203 1290.77,244.203C1286.08,244.203 1282.01,242.672 1278.56,239.61C1275.1,236.548 1273.38,232.345 1273.38,227.003C1273.38,221.661 1275.1,217.459 1278.56,214.397C1282.01,211.335 1286.08,209.804 1290.77,209.804C1295.46,209.804 1299.53,211.335 1302.99,214.397C1306.44,217.459 1308.17,221.661 1308.17,227.003Z" style="fill:white;fill-rule:nonzero;"/>
                <path d="M1428.95,307.918C1428.95,315.997 1427.78,323.391 1425.43,330.101C1423.09,336.812 1419.7,342.545 1415.27,347.301C1410.84,352.056 1405.53,355.737 1399.34,358.343C1393.15,360.949 1386.21,362.252 1378.53,362.252C1370.97,362.252 1364.1,360.949 1357.91,358.343C1351.72,355.737 1346.41,352.056 1341.98,347.301C1337.55,342.545 1334.1,336.812 1331.62,330.101C1329.14,323.391 1327.91,315.997 1327.91,307.918C1327.91,299.84 1329.18,292.478 1331.72,285.833C1334.26,279.187 1337.78,273.52 1342.27,268.829C1346.77,264.138 1352.11,260.49 1358.3,257.884C1364.49,255.278 1371.23,253.975 1378.53,253.975C1385.95,253.975 1392.76,255.278 1398.95,257.884C1405.14,260.49 1410.45,264.138 1414.88,268.829C1419.31,273.52 1422.76,279.187 1425.24,285.833C1427.71,292.478 1428.95,299.84 1428.95,307.918ZM1399.24,307.918C1399.24,298.928 1397.45,291.859 1393.87,286.712C1390.29,281.565 1385.17,278.992 1378.53,278.992C1371.88,278.992 1366.73,281.565 1363.09,286.712C1359.44,291.859 1357.61,298.928 1357.61,307.918C1357.61,316.909 1359.44,324.042 1363.09,329.319C1366.73,334.597 1371.88,337.235 1378.53,337.235C1385.17,337.235 1390.29,334.597 1393.87,329.319C1397.45,324.042 1399.24,316.909 1399.24,307.918Z" style="fill:none;fill-rule:nonzero;stroke:black;stroke-width:29.84px;"/>
                <path d="M1428.95,307.918C1428.95,315.997 1427.78,323.391 1425.43,330.101C1423.09,336.812 1419.7,342.545 1415.27,347.301C1410.84,352.056 1405.53,355.737 1399.34,358.343C1393.15,360.949 1386.21,362.252 1378.53,362.252C1370.97,362.252 1364.1,360.949 1357.91,358.343C1351.72,355.737 1346.41,352.056 1341.98,347.301C1337.55,342.545 1334.1,336.812 1331.62,330.101C1329.14,323.391 1327.91,315.997 1327.91,307.918C1327.91,299.84 1329.18,292.478 1331.72,285.833C1334.26,279.187 1337.78,273.52 1342.27,268.829C1346.77,264.138 1352.11,260.49 1358.3,257.884C1364.49,255.278 1371.23,253.975 1378.53,253.975C1385.95,253.975 1392.76,255.278 1398.95,257.884C1405.14,260.49 1410.45,264.138 1414.88,268.829C1419.31,273.52 1422.76,279.187 1425.24,285.833C1427.71,292.478 1428.95,299.84 1428.95,307.918ZM1399.24,307.918C1399.24,298.928 1397.45,291.859 1393.87,286.712C1390.29,281.565 1385.17,278.992 1378.53,278.992C1371.88,278.992 1366.73,281.565 1363.09,286.712C1359.44,291.859 1357.61,298.928 1357.61,307.918C1357.61,316.909 1359.44,324.042 1363.09,329.319C1366.73,334.597 1371.88,337.235 1378.53,337.235C1385.17,337.235 1390.29,334.597 1393.87,329.319C1397.45,324.042 1399.24,316.909 1399.24,307.918Z" style="fill:white;fill-rule:nonzero;"/>
            </g>
        </g>
    </g>
</svg>
