<?xml version="1.0" encoding="UTF-8" standalone="no"?>
<!DOCTYPE svg PUBLIC "-//W3C//DTD SVG 1.1//EN" "http://www.w3.org/Graphics/SVG/1.1/DTD/svg11.dtd">
<svg width="100%" height="100%" viewBox="0 0 39 39" version="1.1" xmlns="http://www.w3.org/2000/svg" xmlns:xlink="http://www.w3.org/1999/xlink" xml:space="preserve" xmlns:serif="http://www.serif.com/" style="fill-rule:evenodd;clip-rule:evenodd;stroke-linejoin:round;stroke-miterlimit:2;">
    <g transform="matrix(1,0,0,1,-49.7004,-48.6862)">
        <g transform="matrix(0.844114,0,0,0.844114,-6.60842,-21.4495)">
            <g transform="matrix(0.829286,0,0,0.829286,15.4843,16.48)">
                <path d="M93.91,83.644C93.495,81.734 91.827,80.355 89.872,80.307C89.481,80.318 89.09,80.317 88.7,80.326C86.735,80.371 85.056,81.756 84.638,83.676C84.616,83.688 84.613,83.703 84.609,83.719C84.22,85.503 82.967,86.977 81.267,87.647C81.062,87.703 80.867,87.784 80.672,87.867C78.989,88.596 77.053,88.438 75.51,87.447C75.483,87.459 75.469,87.451 75.456,87.442C73.811,86.385 71.657,86.59 70.241,87.938C69.972,88.222 69.695,88.498 69.425,88.78C68.068,90.202 67.86,92.368 68.922,94.022C68.915,94.045 68.923,94.059 68.932,94.072C69.919,95.609 70.074,97.537 69.346,99.213C69.241,99.397 69.16,99.593 69.082,99.789C68.406,101.495 66.926,102.752 65.134,103.142C65.123,103.17 65.108,103.174 65.092,103.177C63.182,103.593 61.803,105.261 61.755,107.215C61.766,107.607 61.766,107.997 61.774,108.388C61.819,110.353 63.204,112.031 65.125,112.45C65.136,112.472 65.151,112.475 65.167,112.478C66.952,112.867 68.425,114.121 69.095,115.82C69.151,116.026 69.232,116.221 69.316,116.415C70.044,118.099 69.887,120.035 68.895,121.578C68.908,121.605 68.899,121.618 68.891,121.632C67.834,123.276 68.038,125.431 69.386,126.847C69.67,127.116 69.947,127.392 70.229,127.663C71.65,129.02 73.816,129.228 75.47,128.165C75.494,128.173 75.507,128.164 75.52,128.156C77.057,127.169 78.985,127.013 80.661,127.741C80.846,127.847 81.041,127.928 81.238,128.006C82.943,128.681 84.2,130.162 84.591,131.954C84.619,131.964 84.622,131.98 84.626,131.995C85.041,133.906 86.709,135.284 88.664,135.333C89.055,135.322 89.446,135.322 89.836,135.314C91.801,135.268 93.48,133.883 93.898,131.963C93.92,131.952 93.923,131.936 93.927,131.921C94.316,130.136 95.569,128.663 97.269,127.992C97.474,127.936 97.669,127.856 97.864,127.772C99.547,127.043 101.483,127.201 103.026,128.192C103.053,128.18 103.067,128.189 103.08,128.197C104.725,129.254 106.879,129.049 108.295,127.701C108.564,127.417 108.841,127.141 109.111,126.859C110.468,125.437 110.676,123.271 109.614,121.618C109.621,121.594 109.613,121.581 109.604,121.568C108.617,120.03 108.462,118.102 109.189,116.427C109.295,116.242 109.376,116.046 109.454,115.85C110.13,114.144 111.61,112.887 113.402,112.497C113.413,112.469 113.428,112.465 113.444,112.462C115.354,112.046 116.733,110.378 116.781,108.424C116.77,108.033 116.77,107.642 116.762,107.251C116.716,105.286 115.332,103.608 113.411,103.19C113.4,103.168 113.384,103.164 113.369,103.161C111.584,102.772 110.111,101.518 109.441,99.819C109.385,99.614 109.304,99.418 109.22,99.224C108.492,97.54 108.649,95.605 109.641,94.061C109.628,94.034 109.637,94.021 109.645,94.008C110.702,92.363 110.498,90.209 109.15,88.792C108.865,88.524 108.589,88.247 108.307,87.977C106.886,86.619 104.72,86.412 103.066,87.474C103.042,87.466 103.029,87.475 103.016,87.483C101.479,88.47 99.55,88.626 97.875,87.898C97.69,87.793 97.495,87.711 97.298,87.633C95.593,86.958 94.335,85.478 93.945,83.685C93.917,83.675 93.914,83.66 93.91,83.644ZM89.268,95.476C96.08,95.476 101.611,101.007 101.611,107.82C101.611,114.632 96.08,120.163 89.268,120.163C82.456,120.163 76.925,114.632 76.925,107.82C76.925,101.007 82.456,95.476 89.268,95.476Z" style="fill:white;"/>
            </g>
        </g>
    </g>
</svg>
