<?xml version="1.0" encoding="UTF-8" standalone="no"?>
<!DOCTYPE svg PUBLIC "-//W3C//DTD SVG 1.1//EN" "http://www.w3.org/Graphics/SVG/1.1/DTD/svg11.dtd">
<svg width="100%" height="100%" viewBox="0 0 70 70" version="1.1" xmlns="http://www.w3.org/2000/svg" xmlns:xlink="http://www.w3.org/1999/xlink" xml:space="preserve" xmlns:serif="http://www.serif.com/" style="fill-rule:evenodd;clip-rule:evenodd;stroke-linecap:round;stroke-linejoin:round;stroke-miterlimit:1.5;">
    <g transform="matrix(1,0,0,1,-1783.61,-157.17)">
        <g transform="matrix(1,0,0,1,-0.966533,-0.712675)">
            <g id="Split-button" serif:id="Split button" transform="matrix(0.866579,0,0,0.866579,238.937,21.6823)">
                <rect x="1783.61" y="157.17" width="80.777" height="80.777" style="fill:none;"/>
                <path d="M1819.05,192.609C1818.68,191.323 1818.48,189.964 1818.48,188.558C1818.48,180.543 1824.99,174.036 1833,174.036C1841.02,174.036 1847.52,180.543 1847.52,188.558C1847.52,196.574 1841.02,203.081 1833,203.081C1831.6,203.081 1830.24,202.881 1828.95,202.508C1829.32,203.794 1829.52,205.153 1829.52,206.558C1829.52,214.574 1823.02,221.081 1815,221.081C1806.99,221.081 1800.48,214.574 1800.48,206.558C1800.48,198.543 1806.99,192.036 1815,192.036C1816.41,192.036 1817.77,192.236 1819.05,192.609Z" style="fill:none;stroke:black;stroke-width:4.66px;"/>
            </g>
        </g>
    </g>
</svg>
